#!OML:ASF F:\VICON\USERDATA\INSTALL\rory3\rory3.ASF
:FULLY-SPECIFIED
:DEGREES
1387
root -7.38179 19.3421 -2.9367 -181.78 -151.033 182.639
lowerback 7.43683 1.28825 -5.06596
upperback -4.09187 0.851801 -3.57774
thorax -8.55469 0.572797 -1.07543
lowerneck -18.342 -6.7199 -12.7398
upperneck -6.58807 -6.57117 13.4807
head 1.84693 -2.70812 5.77057
rclavicle 5.61567e-014 3.97569e-014
rhumerus 92.1848 -31.5403 -38.4821
rradius 29.1171
rwrist 15.1703
rhand -24.4575 -5.96919
rfingers 7.12502
rthumb 2.03552 -35.9392
lclavicle 5.61567e-014 3.97569e-014
lhumerus 66.2806 30.2495 4.8434
lradius 58.9843
lwrist -1.92671
lhand -20.738 11.8969
lfingers 7.12502
lthumb 5.62734 41.8022
rfemur -8.66474 4.24719 18.8818
rtibia 30.3731
rfoot 5.35873 -20.9405
rtoes 6.18646
lfemur -17.9689 -8.59539 -7.09848
ltibia 29.959
lfoot 6.91377 -17.5874
ltoes -22.5169
1388
root -7.39246 19.3739 -2.93959 -181.817 -151.008 182.762
lowerback 7.2883 1.42138 -5.04936
upperback -3.97632 1.05253 -3.56446
thorax -8.34581 0.66713 -1.09187
lowerneck -17.6526 -6.57849 -13.5266
upperneck -7.42408 -6.2681 14.5476
head 1.5458 -2.54651 6.29229
rclavicle 3.63776e-014 -1.66979e-014
rhumerus 91.8437 -31.1924 -38.1965
rradius 29.1428
rwrist 15.1738
rhand -24.3086 -5.9805
rfingers 7.12502
rthumb 2.17927 -35.9491
lclavicle 3.63776e-014 -1.66979e-014
lhumerus 66.7267 30.9278 5.87854
lradius 58.1555
lwrist -1.75068
lhand -21.089 12.2662
lfingers 7.12502
lthumb 5.28845 42.1802
rfemur -8.69044 4.33396 18.6773
rtibia 30.1043
rfoot 5.91671 -21.3111
rtoes 6.52547
lfemur -18.1148 -8.68844 -6.92102
ltibia 29.5941
lfoot 6.10267 -16.4269
ltoes -22.137
1389
root -7.40132 19.4024 -2.93975 -181.884 -151.066 183.042
lowerback 7.14156 1.53462 -5.21999
upperback -3.92737 1.20291 -3.53532
thorax -8.21568 0.748995 -0.981456
lowerneck -17.2674 -6.47915 -13.9131
upperneck -7.86027 -6.08024 14.9675
head 1.37085 -2.45285 6.52104
rclavicle 1.0138e-014 -2.38542e-014
rhumerus 91.4465 -30.7347 -37.8756
rradius 29.2315
rwrist 15.2696
rhand -24.4763 -5.83964
rfingers 7.12502
rthumb 2.01734 -35.8098
lclavicle 1.0138e-014 -2.38542e-014
lhumerus 67.0699 31.519 6.96477
lradius 57.1785
lwrist -1.37599
lhand -21.5566 12.5508
lfingers 7.12502
lthumb 4.83695 42.4756
rfemur -8.72712 4.35363 18.2987
rtibia 29.8028
rfoot 6.28612 -21.7844
rtoes 7.47939
lfemur -18.3516 -8.88287 -6.90794
ltibia 29.2523
lfoot 5.25716 -15.2955
ltoes -22.1397
1390
root -7.40631 19.4294 -2.94006 -181.922 -151.119 183.236
lowerback 6.99355 1.62414 -5.2759
upperback -3.80908 1.3405 -3.48686
thorax -8.00711 0.817519 -0.909426
lowerneck -17.4652 -6.48033 -13.9414
upperneck -7.85663 -6.05053 14.9254
head 1.39453 -2.43041 6.51245
rclavicle -2.57426e-014 3.65764e-014
rhumerus 91.2423 -30.3431 -37.7478
rradius 29.3066
rwrist 15.2264
rhand -24.8115 -5.97291
rfingers 7.12502
rthumb 1.69361 -35.9459
lclavicle -2.57426e-014 3.65764e-014
lhumerus 67.4643 32.2488 7.93466
lradius 56.1619
lwrist -0.779371
lhand -21.8809 13.4064
lfingers 7.12502
lthumb 4.52375 43.3381
rfemur -8.71331 4.35691 17.9855
rtibia 29.4879
rfoot 6.40207 -22.3222
rtoes 9.59789
lfemur -18.594 -9.00783 -6.85449
ltibia 28.9437
lfoot 4.43832 -14.3737
ltoes -22.9234
1391
root -7.40812 19.4568 -2.94199 -181.854 -151.221 183.199
lowerback 6.81508 1.64399 -5.05406
upperback -3.61544 1.42232 -3.42001
thorax -7.68978 0.843484 -0.96027
lowerneck -17.966 -6.45589 -14.0179
upperneck -7.76287 -5.94833 14.9933
head 1.48634 -2.35733 6.54939
rclavicle 1.36167e-014 -2.94201e-014
rhumerus 91.1355 -29.9373 -37.809
rradius 29.4343
rwrist 15.223
rhand -25.0913 -5.86118
rfingers 7.12502
rthumb 1.42342 -35.8362
lclavicle 1.36167e-014 -2.94201e-014
lhumerus 68.0968 33.0713 9.06995
lradius 55.0685
lwrist -0.501765
lhand -21.9127 14.2761
lfingers 7.12502
lthumb 4.4931 44.2085
rfemur -8.69246 4.28349 17.9107
rtibia 29.1399
rfoot 6.9211 -22.6584
rtoes 10.242
lfemur -18.8776 -9.02741 -6.58929
ltibia 28.7054
lfoot 4.17514 -13.4036
ltoes -22.9901
